HIERARCHY
ROOT Hips
{
	OFFSET 55.129501 -7.732196 96.160797
	CHANNELS 6 Xposition Yposition Zposition Xrotation Yrotation Zrotation
	JOINT spine
	{
		OFFSET 0.000000 -0.467660 8.132492
		CHANNELS 3 Xrotation Yrotation Zrotation
		JOINT spine1
		{
			OFFSET 0.000000 -0.000002 10.349800
			CHANNELS 3 Xrotation Yrotation Zrotation
			JOINT spine2
			{
				OFFSET 0.000000 -0.000001 9.916992
				CHANNELS 3 Xrotation Yrotation Zrotation
				JOINT Neck
				{
					OFFSET 0.000000 -1.213904 25.461006
					CHANNELS 3 Xrotation Yrotation Zrotation
					JOINT Head
					{
						OFFSET 0.000000 -0.000001 7.692444
						CHANNELS 3 Xrotation Yrotation Zrotation
						End Site
						{
							OFFSET 0.000000 6.140627 18.619995
						}
					}
				}
				JOINT RightShoulder
				{
					OFFSET -4.175751 0.581443 10.709602
					CHANNELS 3 Xrotation Yrotation Zrotation
					JOINT RightArm
					{
						OFFSET 0.000000 -0.000002 14.046600
						CHANNELS 3 Xrotation Yrotation Zrotation
						JOINT RightArmRoll
						{
							OFFSET 0.000000 -0.000001 7.090973
							CHANNELS 3 Xrotation Yrotation Zrotation
							JOINT RightForeArm
							{
								OFFSET 0.000000 -0.000003 20.653503
								CHANNELS 3 Xrotation Yrotation Zrotation
								JOINT RightForeArmRoll
								{
									OFFSET 0.000000 -0.000001 7.957184
									CHANNELS 3 Xrotation Yrotation Zrotation
									JOINT RightHand
									{
										OFFSET 0.000000 -0.000003 15.968292
										CHANNELS 3 Xrotation Yrotation Zrotation
										End Site
										{
											OFFSET 0.000000 0.000000 0.100006
										}
									}
								}
							}
						}
					}
				}
				JOINT LeftShoulder
				{
					OFFSET 4.175751 0.581443 10.709602
					CHANNELS 3 Xrotation Yrotation Zrotation
					JOINT LeftArm
					{
						OFFSET 0.000000 -0.000002 14.046600
						CHANNELS 3 Xrotation Yrotation Zrotation
						JOINT LeftArmRoll
						{
							OFFSET 0.000000 -0.000001 7.090973
							CHANNELS 3 Xrotation Yrotation Zrotation
							JOINT LeftForeArm
							{
								OFFSET 0.000000 -0.000003 20.653503
								CHANNELS 3 Xrotation Yrotation Zrotation
								JOINT LeftForeArmRoll
								{
									OFFSET 0.000000 -0.000001 7.957184
									CHANNELS 3 Xrotation Yrotation Zrotation
									JOINT LeftHand
									{
										OFFSET 0.000000 -0.000003 15.968292
										CHANNELS 3 Xrotation Yrotation Zrotation
										End Site
										{
											OFFSET 0.000000 0.000000 0.100006
										}
									}
								}
							}
						}
					}
				}
			}
		}
	}
	JOINT RightUpLeg
	{
		OFFSET -7.208340 1.108840 -1.321823
		CHANNELS 3 Xrotation Yrotation Zrotation
		JOINT RightUpLegRoll
		{
			OFFSET 0.000000 -0.000003 18.723801
			CHANNELS 3 Xrotation Yrotation Zrotation
			JOINT RightLeg
			{
				OFFSET 0.000000 0.000004 -23.186600
				CHANNELS 3 Xrotation Yrotation Zrotation
				JOINT RightLegRoll
				{
					OFFSET 0.000000 -0.000004 23.262398
					CHANNELS 3 Xrotation Yrotation Zrotation
					JOINT RightFoot
					{
						OFFSET 0.000000 -0.000003 19.362099
						CHANNELS 3 Xrotation Yrotation Zrotation
						JOINT RightToeBase
						{
							OFFSET 0.000000 -0.000003 16.185699
							CHANNELS 3 Xrotation Yrotation Zrotation
							End Site
							{
								OFFSET 0.006859 0.903521 7.838623
							}
						}
					}
				}
			}
		}
	}
	JOINT LeftUpLeg
	{
		OFFSET 7.208340 1.108840 -1.321823
		CHANNELS 3 Xrotation Yrotation Zrotation
		JOINT LeftUpLegRoll
		{
			OFFSET 0.000000 -0.000003 18.723900
			CHANNELS 3 Xrotation Yrotation Zrotation
			JOINT LeftLeg
			{
				OFFSET 0.000000 -0.000004 23.186501
				CHANNELS 3 Xrotation Yrotation Zrotation
				JOINT LeftLegRoll
				{
					OFFSET 0.000000 -0.000004 23.477493
					CHANNELS 3 Xrotation Yrotation Zrotation
					JOINT LeftFoot
					{
						OFFSET 0.000000 -0.000003 19.147003
						CHANNELS 3 Xrotation Yrotation Zrotation
						JOINT LeftToeBase
						{
							OFFSET 0.000000 -0.000003 16.185699
							CHANNELS 3 Xrotation Yrotation Zrotation
							End Site
							{
								OFFSET -0.030746 0.903521 7.838623
							}
						}
					}
				}
			}
		}
	}
}
MOTION
Frames: 7
Frame Time: 0.041667
54.579597 -7.493112 96.178513 -1.978281 0.505999 1.046678 -2.567907 -0.208046 -0.048492 -1.140367 -0.402281 -0.112560 0.504725 -0.403590 -0.107710 15.029150 1.265138 -3.790771 1.659134 2.618695 -4.161854 -17.943894 -16.710883 -20.882873 -129.208423 -178.357263 -72.852519 0.000003 -0.000003 -0.000002 61.692796 2.467634 4.355123 -0.000000 0.000004 -3.009602 -5.000154 -7.999963 0.000033 -19.229445 31.869953 22.839082 -138.693152 185.097580 83.322448 0.000005 0.000001 0.000002 53.557460 -0.992818 -0.867419 0.000005 -0.000002 3.010973 -5.000195 7.999181 -0.000093 -1.974006 -172.917167 3.430070 179.999991 -0.000005 -0.981002 171.143709 -1.554256 -0.543146 0.000000 0.000000 -0.032954 68.612952 6.173364 3.998336 25.456953 -7.355615 0.000000 -1.201884 173.819353 -1.354641 -0.000005 -0.000004 -0.979184 -11.812828 1.485288 0.629992 -0.000001 -0.000002 -0.217135 72.761910 -6.377051 -3.321483 25.457964 7.355615 -0.001521 
54.576595 -7.491096 96.180206 -1.982217 0.512962 1.040683 -2.566839 -0.209168 -0.048959 -1.138838 -0.404446 -0.113544 0.506252 -0.405773 -0.108669 15.061255 1.247256 -3.795531 1.649706 2.597596 -4.163198 -17.955556 -16.745539 -20.901607 -129.182168 -178.275833 -72.920903 0.000000 -0.000001 -0.000003 61.579339 2.484161 4.324610 0.000001 0.000004 -3.009589 -5.000158 -7.999962 0.000034 -19.225406 31.950635 22.833177 -138.721552 185.019839 83.428438 0.000004 0.000002 0.000003 53.496371 -1.003134 -0.848466 0.000003 -0.000000 3.010969 -5.000199 7.999180 -0.000093 -1.965900 -172.925131 3.426832 179.999991 -0.000005 -0.981999 171.155675 -1.553322 -0.542668 0.000000 0.000000 -0.033153 68.605842 6.174086 3.996672 25.456950 -7.355616 0.000000 -1.200186 173.810351 -1.360586 -0.000005 -0.000005 -0.979092 -11.818630 1.485521 0.630606 -0.000001 -0.000002 -0.217098 72.764573 -6.376136 -3.324393 25.457969 7.355617 -0.001520 
54.575798 -7.491174 96.179893 -1.986362 0.519969 1.035394 -2.565669 -0.210409 -0.049451 -1.136989 -0.407046 -0.114393 0.508111 -0.408388 -0.109487 15.087065 1.231434 -3.800699 1.645511 2.575051 -4.165090 -17.968324 -16.783935 -20.922256 -129.157607 -178.190401 -72.992353 -0.000003 -0.000003 -0.000004 61.461997 2.500912 4.293509 -0.000001 0.000003 -3.009589 -5.000154 -7.999965 0.000031 -19.222348 32.034021 22.828563 -138.750198 184.938792 83.538623 0.000002 -0.000000 0.000003 53.426040 -1.015542 -0.827722 0.000004 -0.000000 3.010970 -5.000194 7.999182 -0.000093 -1.957482 -172.933081 3.423890 179.999991 -0.000005 -0.981999 171.167669 -1.553372 -0.541346 0.000000 0.000000 -0.033352 68.598834 6.174784 3.994894 25.456955 -7.355615 -0.000000 -1.198616 173.801335 -1.366428 -0.000004 -0.000005 -0.978996 -11.824634 1.485703 0.631273 -0.000000 -0.000001 -0.217062 72.767087 -6.375108 -3.327794 25.457964 7.355617 -0.001520 
54.580395 -7.487543 96.178703 -1.990764 0.527069 1.030600 -2.564341 -0.211781 -0.049997 -1.134729 -0.410084 -0.115178 0.510369 -0.411440 -0.110241 15.106198 1.218241 -3.806779 1.646521 2.550569 -4.167962 -17.982428 -16.826132 -20.944919 -129.134972 -178.101977 -73.068114 0.000000 -0.000002 -0.000003 61.337735 2.518918 4.261280 -0.000002 0.000005 -3.009579 -5.000155 -7.999962 0.000036 -19.220723 32.120512 22.825833 -138.780059 184.854835 83.653227 0.000005 0.000003 0.000003 53.344061 -1.030853 -0.804738 0.000004 0.000001 3.010980 -5.000199 7.999180 -0.000091 -1.948682 -172.941045 3.421232 179.999991 -0.000005 -0.982996 171.179772 -1.552438 -0.540865 0.000001 0.000000 -0.033545 68.591820 6.175442 3.993212 25.456955 -7.355613 -0.000000 -1.197026 173.792333 -1.372282 -0.000005 -0.000005 -0.978894 -11.830736 1.485877 0.632013 -0.000001 -0.000002 -0.217025 72.769382 -6.374061 -3.331404 25.457964 7.355616 -0.001519 
54.578598 -7.487415 96.179398 -1.995405 0.534249 1.026263 -2.562879 -0.213269 -0.050583 -1.132119 -0.413509 -0.115896 0.512977 -0.414877 -0.110923 15.119440 1.207371 -3.813716 1.651910 2.524362 -4.171746 -17.997617 -16.871780 -20.969307 -129.113812 -178.010016 -73.147522 0.000002 0.000000 -0.000003 61.207203 2.538056 4.228040 -0.000001 0.000004 -3.009580 -5.000160 -7.999960 0.000034 -19.220245 32.209864 22.824754 -138.810740 184.767627 83.771020 0.000006 0.000001 0.000002 53.251761 -1.048708 -0.779771 0.000003 -0.000001 3.010980 -5.000197 7.999180 -0.000092 -1.939544 -172.947999 3.418791 179.999991 -0.000005 -0.982996 171.191957 -1.552488 -0.540535 0.000000 0.000000 -0.033734 68.584907 6.176070 3.991417 25.456957 -7.355615 -0.000000 -1.195427 173.784355 -1.378160 -0.000004 -0.000005 -0.978787 -11.836938 1.486028 0.632812 -0.000000 -0.000002 -0.216989 72.771629 -6.372889 -3.335499 25.457966 7.355616 -0.001520 
54.581196 -7.490704 96.179207 -2.000259 0.541497 1.022361 -2.561298 -0.214860 -0.051196 -1.129210 -0.417273 -0.116541 0.515882 -0.418652 -0.111530 15.127990 1.198538 -3.821472 1.660845 2.496623 -4.176349 -18.013651 -16.920323 -20.994974 -129.094182 -177.914052 -73.231007 0.000002 -0.000002 -0.000004 61.070955 2.558194 4.193908 -0.000000 0.000002 -3.009576 -5.000154 -7.999962 0.000037 -19.220776 32.301908 22.824984 -138.842050 184.676772 83.891723 0.000006 0.000001 0.000002 53.150312 -1.068775 -0.753087 0.000005 -0.000001 3.010980 -5.000198 7.999182 -0.000093 -1.930099 -172.955963 3.416588 179.999991 -0.000006 -0.984007 171.204183 -1.552541 -0.540204 -0.000000 0.000001 -0.033920 68.578084 6.176676 3.989613 25.456952 -7.355616 0.000000 -1.193836 173.775339 -1.384026 -0.000005 -0.000005 -0.978676 -11.843343 1.486160 0.633665 -0.000001 -0.000002 -0.216950 72.773678 -6.371730 -3.339804 25.457964 7.355616 -0.001520 
54.578796 -7.488906 96.179314 -2.005324 0.548802 1.018853 -2.559631 -0.216537 -0.051821 -1.126061 -0.421325 -0.117110 0.519034 -0.422714 -0.112058 15.132651 1.191445 -3.829997 1.672492 2.467561 -4.181717 -18.030161 -16.971406 -21.021406 -129.075754 -177.813607 -73.315968 0.000001 -0.000002 -0.000004 60.929549 2.579202 4.159004 -0.000000 0.000002 -3.009568 -5.000156 -7.999962 0.000033 -19.222183 32.396072 22.826405 -138.873797 184.581996 84.015883 0.000005 0.000001 0.000001 53.041012 -1.090714 -0.724933 0.000005 0.000001 3.010991 -5.000198 7.999179 -0.000091 -1.920385 -172.963913 3.414556 179.999991 -0.000005 -0.984007 171.216436 -1.553577 -0.539013 -0.000000 0.000000 -0.034102 68.571274 6.177280 3.987808 25.456953 -7.355616 0.000001 -1.192260 173.766337 -1.389901 -0.000005 -0.000005 -0.978562 -11.849946 1.486281 0.634561 0.000001 -0.000002 -0.216913 72.775693 -6.370511 -3.344306 25.457964 7.355616 -0.001520 
